<?xml version="1.0" encoding="UTF-8"?>
<svg xmlns="http://www.w3.org/2000/svg" xmlns:xlink="http://www.w3.org/1999/xlink" width="20px" height="20px" viewBox="0 0 20 20" version="1.1">
<g id="surface1">
<path style=" stroke:none;fill-rule:nonzero;fill:rgb(80%,40%,20%);fill-opacity:1;" d="M 13.75 7.5 C 13.75 8.496094 13.355469 9.449219 12.652344 10.152344 C 11.949219 10.855469 10.996094 11.25 10 11.25 C 9.003906 11.25 8.050781 10.855469 7.347656 10.152344 C 6.644531 9.449219 6.25 8.496094 6.25 7.5 C 6.25 6.503906 6.644531 5.550781 7.347656 4.847656 C 8.050781 4.144531 9.003906 3.75 10 3.75 C 10.996094 3.75 11.949219 4.144531 12.652344 4.847656 C 13.355469 5.550781 13.75 6.503906 13.75 7.5 Z M 13.75 7.5 "/>
<path style=" stroke:none;fill-rule:evenodd;fill:rgb(80%,40%,20%);fill-opacity:1;" d="M 0 10 C 0 7.347656 1.054688 4.804688 2.929688 2.929688 C 4.804688 1.054688 7.347656 0 10 0 C 12.652344 0 15.195312 1.054688 17.070312 2.929688 C 18.945312 4.804688 20 7.347656 20 10 C 20 12.652344 18.945312 15.195312 17.070312 17.070312 C 15.195312 18.945312 12.652344 20 10 20 C 7.347656 20 4.804688 18.945312 2.929688 17.070312 C 1.054688 15.195312 0 12.652344 0 10 Z M 10 1.25 C 8.351562 1.25 6.738281 1.714844 5.34375 2.59375 C 3.949219 3.46875 2.828125 4.722656 2.113281 6.207031 C 1.402344 7.691406 1.121094 9.347656 1.304688 10.988281 C 1.492188 12.625 2.136719 14.175781 3.164062 15.460938 C 4.050781 14.03125 6.007812 12.5 10 12.5 C 13.992188 12.5 15.945312 14.03125 16.835938 15.460938 C 17.863281 14.175781 18.507812 12.625 18.695312 10.988281 C 18.878906 9.347656 18.597656 7.691406 17.886719 6.207031 C 17.171875 4.722656 16.050781 3.46875 14.65625 2.59375 C 13.261719 1.714844 11.648438 1.25 10 1.25 Z M 10 1.25 "/>
</g>
</svg>
